<svg 
    xmlns:xlink="http://www.w3.org/1999/xlink" 
    xmlns="http://www.w3.org/2000/svg" 
    width="168" 
    height="300" 
    viewBox="0 0 168 300" 
    class="">
    <defs id="SvgS"></defs>
    <g 
        id="SvgS" 
        featurekey="nameFeature-0" 
        transform="matrix(10.714285714285714,0,0,10.714285714285714,-17.14285867554801,-128.57141835348946)" 
        fill="#C57B57">
        <path 
            d="M5.32 28.52 l-3.72 -3.72 l0 -9.08 l3.72 -3.72 l3.28 0 l0 5.04 l-1.2 0 l-0.76 0.76 l0 4.92 l0.76 0.76 l6.16 0 l3.72 3.72 l0 1.32 l-11.96 0 z M5.32 40 l-3.72 -3.72 l0 -5.24 l5.04 0 l0 3.16 l0.76 0.76 l4.08 0 l0.76 -0.76 l0 -4 l5.04 0 l0 6.08 l-3.72 3.72 l-8.24 0 z M12.24 20.96 l0 -3.16 l-0.76 -0.76 l-1.2 0 l0 -5.04 l3.28 0 l3.72 3.72 l0 5.24 l-5.04 0 z" 
            fill="#C57B57">
        </path>
    </g>
</svg>